<svg width="35" height="41" viewBox="0 0 35 41" fill="none" xmlns="http://www.w3.org/2000/svg">
<path d="M31.5938 6.35436H23.9389V3.89693C23.9389 1.7771 22.215 0.0531769 20.0952 0.0531769H14.9849C12.8651 0.0531769 11.1412 1.7771 11.1412 3.89693V6.35436H3.40625C1.99111 6.35436 0.84375 7.50172 0.84375 8.91686V38.3843C0.84375 39.7995 1.99111 40.9468 3.40625 40.9468H31.5938C33.0089 40.9468 34.1562 39.7995 34.1562 38.3843V8.91686C34.1562 7.50172 33.0089 6.35436 31.5938 6.35436ZM13.7037 3.89693C13.7037 3.18968 14.2777 2.61568 14.9849 2.61568H20.0952C20.8025 2.61568 21.3765 3.18968 21.3765 3.89693V6.35436H13.7037V3.89693ZM31.5938 38.3843H3.40629V8.91686H11.1412V11.553C11.1412 11.553 11.1072 12.833 12.4148 12.833C13.8562 12.833 13.7037 11.553 13.7037 11.553V8.91686H21.3765V11.553C21.3765 11.553 21.2913 12.8394 22.6526 12.8394C23.9339 12.8394 23.939 11.553 23.939 11.553V8.91686H31.5938L31.5938 38.3843Z" fill="black"/>
</svg>
