<svg width="91" height="74" viewBox="0 0 91 74" fill="none" xmlns="http://www.w3.org/2000/svg">
<path d="M88.725 50.6875H86.45V35.2748C86.45 33.4641 85.7249 31.7246 84.4452 30.4414L70.2406 16.1979C68.9609 14.9146 67.2263 14.1875 65.4205 14.1875H59.15V7.34375C59.15 3.56543 56.093 0.5 52.325 0.5H15.925C12.157 0.5 9.1 3.56543 9.1 7.34375V14.1875H1.1375C0.511875 14.1875 0 14.7008 0 15.3281V17.6094C0 18.2367 0.511875 18.75 1.1375 18.75H39.8125C40.4381 18.75 40.95 19.2633 40.95 19.8906V22.1719C40.95 22.7992 40.4381 23.3125 39.8125 23.3125H5.6875C5.06188 23.3125 4.55 23.8258 4.55 24.4531V26.7344C4.55 27.3617 5.06188 27.875 5.6875 27.875H35.2625C35.8881 27.875 36.4 28.3883 36.4 29.0156V31.2969C36.4 31.9242 35.8881 32.4375 35.2625 32.4375H1.1375C0.511875 32.4375 0 32.9508 0 33.5781V35.8594C0 36.4867 0.511875 37 1.1375 37H30.7125C31.3381 37 31.85 37.5133 31.85 38.1406V40.4219C31.85 41.0492 31.3381 41.5625 30.7125 41.5625H9.1V59.8125C9.1 67.3691 15.2141 73.5 22.75 73.5C30.2859 73.5 36.4 67.3691 36.4 59.8125H54.6C54.6 67.3691 60.7141 73.5 68.25 73.5C75.7859 73.5 81.9 67.3691 81.9 59.8125H88.725C89.9763 59.8125 91 58.7859 91 57.5312V52.9688C91 51.7141 89.9763 50.6875 88.725 50.6875ZM22.75 66.6562C18.982 66.6562 15.925 63.5908 15.925 59.8125C15.925 56.0342 18.982 52.9688 22.75 52.9688C26.518 52.9688 29.575 56.0342 29.575 59.8125C29.575 63.5908 26.518 66.6562 22.75 66.6562ZM68.25 66.6562C64.482 66.6562 61.425 63.5908 61.425 59.8125C61.425 56.0342 64.482 52.9688 68.25 52.9688C72.018 52.9688 75.075 56.0342 75.075 59.8125C75.075 63.5908 72.018 66.6562 68.25 66.6562ZM79.625 37H59.15V21.0312H65.4205L79.625 35.2748V37Z" fill="black"/>
</svg>
