<svg width="35" height="35" viewBox="0 0 35 35" fill="none" xmlns="http://www.w3.org/2000/svg">
<path d="M33.625 33.625L22.875 22.875M1.375 13.9167C1.375 15.5637 1.6994 17.1945 2.32968 18.7162C2.95996 20.2378 3.88377 21.6204 5.04837 22.785C6.21297 23.9496 7.59555 24.8734 9.11718 25.5037C10.6388 26.1339 12.2697 26.4583 13.9167 26.4583C15.5637 26.4583 17.1945 26.1339 18.7162 25.5037C20.2378 24.8734 21.6204 23.9496 22.785 22.785C23.9496 21.6204 24.8734 20.2378 25.5037 18.7162C26.1339 17.1945 26.4583 15.5637 26.4583 13.9167C26.4583 12.2697 26.1339 10.6388 25.5037 9.11718C24.8734 7.59555 23.9496 6.21297 22.785 5.04837C21.6204 3.88377 20.2378 2.95995 18.7162 2.32968C17.1945 1.6994 15.5637 1.375 13.9167 1.375C12.2697 1.375 10.6388 1.6994 9.11718 2.32968C7.59555 2.95995 6.21297 3.88377 5.04837 5.04837C3.88377 6.21297 2.95996 7.59555 2.32968 9.11718C1.6994 10.6388 1.375 12.2697 1.375 13.9167Z" stroke="black" stroke-width="2" stroke-linecap="round" stroke-linejoin="round"/>
</svg>
