<svg width="37" height="37" viewBox="0 0 37 37" fill="none" xmlns="http://www.w3.org/2000/svg">
<path d="M1.5 31.25C1.5 28.9957 2.39553 26.8337 3.98959 25.2396C5.58365 23.6455 7.74566 22.75 10 22.75H27C29.2543 22.75 31.4163 23.6455 33.0104 25.2396C34.6045 26.8337 35.5 28.9957 35.5 31.25C35.5 32.3772 35.0522 33.4582 34.2552 34.2552C33.4582 35.0522 32.3772 35.5 31.25 35.5H5.75C4.62283 35.5 3.54183 35.0522 2.7448 34.2552C1.94777 33.4582 1.5 32.3772 1.5 31.25Z" stroke="black" stroke-width="1.5" stroke-linejoin="round"/>
<path d="M18.5 14.25C22.0208 14.25 24.875 11.3958 24.875 7.875C24.875 4.35418 22.0208 1.5 18.5 1.5C14.9792 1.5 12.125 4.35418 12.125 7.875C12.125 11.3958 14.9792 14.25 18.5 14.25Z" stroke="black" stroke-width="1.5"/>
</svg>
