<svg width="64" height="45" viewBox="0 0 64 45" fill="none" xmlns="http://www.w3.org/2000/svg">
<path d="M49.2 0H14.8C12.5722 0 10.4356 0.888948 8.8603 2.47129C7.285 4.05362 6.4 6.19974 6.4 8.4375V9.67339C7.76177 9.56781 9.1309 9.73269 10.4292 10.1586C11.7276 10.5846 12.9296 11.2632 13.9668 12.1558C15.004 13.0484 15.8561 14.1375 16.4742 15.3608C17.0924 16.5842 17.4646 17.9179 17.5696 19.2857H46.432C46.6441 16.5235 47.9398 13.959 50.0342 12.1564C52.1286 10.3538 54.8501 9.46061 57.6 9.67339V8.4375C57.6 3.77679 53.84 0 49.2 0ZM56.8 12.8571C58.7096 12.8571 60.5409 13.6191 61.8912 14.9754C63.2414 16.3317 64 18.1712 64 20.0893V30.1339C63.9998 32.0224 63.3691 33.8562 62.2089 35.3421C61.0486 36.828 59.4258 37.8802 57.6 38.3304V42.9911C57.6 43.5239 57.3893 44.0349 57.0142 44.4116C56.6391 44.7883 56.1304 45 55.6 45C55.0696 45 54.5609 44.7883 54.1858 44.4116C53.8107 44.0349 53.6 43.5239 53.6 42.9911V38.5714H10.4V42.9911C10.4 43.5239 10.1893 44.0349 9.81421 44.4116C9.43914 44.7883 8.93043 45 8.4 45C7.86957 45 7.36086 44.7883 6.98579 44.4116C6.61071 44.0349 6.4 43.5239 6.4 42.9911V38.3304C4.57416 37.8802 2.95136 36.828 1.79111 35.3421C0.630868 33.8562 0.000210559 32.0224 0 30.1339V20.0893C0 18.1712 0.758569 16.3317 2.10883 14.9754C3.45909 13.6191 5.29044 12.8571 7.2 12.8571C9.10956 12.8571 10.9409 13.6191 12.2912 14.9754C13.6414 16.3317 14.4 18.1712 14.4 20.0893V20.8929C14.4 21.3191 14.5686 21.7279 14.8686 22.0293C15.1687 22.3307 15.5757 22.5 16 22.5H48C48.4243 22.5 48.8313 22.3307 49.1314 22.0293C49.4314 21.7279 49.6 21.3191 49.6 20.8929V20.0893C49.6 18.1712 50.3586 16.3317 51.7088 14.9754C53.0591 13.6191 54.8904 12.8571 56.8 12.8571Z" fill="#9CAFA0"/>
</svg>
