<svg width="61" height="73" viewBox="0 0 61 73" fill="none" xmlns="http://www.w3.org/2000/svg">
<path d="M29.8493 0.5C12.848 0.5 -0.963226 14.3112 -0.963226 31.3125C-0.963226 48.3138 12.848 62.125 29.8493 62.125H31.6618V73C49.2793 64.5175 60.6618 47.625 60.6618 31.3125C60.6618 14.3112 46.8505 0.5 29.8493 0.5ZM33.4743 53.0625H26.2243V45.8125H33.4743V53.0625ZM33.4743 40.375H26.2243C26.2243 28.5938 37.0993 29.5 37.0993 22.25C37.0993 18.2625 33.8368 15 29.8493 15C25.8618 15 22.5993 18.2625 22.5993 22.25H15.3493C15.3493 14.2387 21.838 7.75 29.8493 7.75C37.8605 7.75 44.3493 14.2387 44.3493 22.25C44.3493 31.3125 33.4743 32.2188 33.4743 40.375Z" fill="black"/>
</svg>
