<svg width="90" height="64" viewBox="0 0 90 64" fill="none" xmlns="http://www.w3.org/2000/svg">
<path d="M16.3125 0.125C12.0856 0.125 8.03185 1.80412 5.04299 4.79299C2.05412 7.78185 0.375 11.8356 0.375 16.0625V19.25H89.625V16.0625C89.625 11.8356 87.9459 7.78185 84.957 4.79299C81.9682 1.80412 77.9144 0.125 73.6875 0.125H16.3125ZM89.625 25.625H0.375V47.9375C0.375 52.1644 2.05412 56.2182 5.04299 59.207C8.03185 62.1959 12.0856 63.875 16.3125 63.875H73.6875C77.9144 63.875 81.9682 62.1959 84.957 59.207C87.9459 56.2182 89.625 52.1644 89.625 47.9375V25.625ZM60.9375 44.75H73.6875C74.5329 44.75 75.3436 45.0858 75.9414 45.6836C76.5392 46.2814 76.875 47.0921 76.875 47.9375C76.875 48.7829 76.5392 49.5936 75.9414 50.1914C75.3436 50.7892 74.5329 51.125 73.6875 51.125H60.9375C60.0921 51.125 59.2814 50.7892 58.6836 50.1914C58.0858 49.5936 57.75 48.7829 57.75 47.9375C57.75 47.0921 58.0858 46.2814 58.6836 45.6836C59.2814 45.0858 60.0921 44.75 60.9375 44.75Z" fill="black"/>
</svg>
